<svg xmlns="http://www.w3.org/2000/svg" viewBox="0 0 829.03 295.09"><defs><style>.cls-1{fill:#eee;}</style></defs><g id="Layer_1" data-name="Layer 1"><path class="cls-1" d="M506.76,520.92l-19.17,13.4-31.31,19.77s-17.36,12.07,15.46-32.58c3.3-4.49-2-6-7.05-4.79-4.41,1-8.51,4.59-8.51,4.59s-39.62,32.58-10.17.59l20.44-21.81a6.55,6.55,0,0,1,3.95-1.5c2.67-.23.88-3.95.88-3.95l31.2-30.58s6.64-12.38-18.51-1.54c-4.26,1.84-7.63,5.73-15.3,12.33C456.27,485.52,456,488.67,456,488.67l-24.78.17s-.53-4.1,6.65-12.92c4.5-5.52-12.18-5.52-16.53-.05,0,0-11.11,12.92-10.76,13.06l-64.08,8.81s-6.46,12.29,44,9.52c5.93-.33-63.46,48.59-63.46,48.59s-18.31,10.06,27.91-36.69c8.71-8.8-10.56-5.18-10.56-5.18S302.2,547.14,303,548.51s-21,7.35,6.65-16.63c20-17.32-.59-15.26-.59-15.26l-16.73,15.85s-33.42,25-12.62-7.05c8.91-13.69-10.46-14.57-10.46-14.57s-3.5,2.53-5.29-.59c-1.4-2.45-8.8,2.54-8.8,2.54s-24.59,15.64-35.09,33.79c-11.46,19.83,0,38.74,30.26,20.21a70.6,70.6,0,0,0,13.31-14.34s11.61,1.3,16.56-3.66c0,0-22.17,48.92,28.05,4.18,0,0,3.33-4-1.83,9.65a10.91,10.91,0,0,0,1.47,10c14.85,17.89,47.18-22.77,47.18-22.77s-13.24,63.32,52,3.36c0,0,5-3-7.23,14.47-3.06,4.38,5.49,7.55,6.84,5.48,6.26-9.59,24-24.45,33.17-29.35,5.28-2.83-5.19,16.93-5.19,16.93s-6.37,19.84,11.84,12.91c19.54-7.44,63.31-44.7,67.2-50.58C519.67,514.07,506.76,520.92,506.76,520.92Zm-263,35.45c-30.39,23.22,3.26-21,3.26-21a35.82,35.82,0,0,0,4.91,7.91C255.79,548.27,243.8,556.37,243.8,556.37Zm24.7-35.5c-.53,9.1-7.53,15-7.53,15-11.74-.05,7.53-15.24,7.53-15.24Zm110.11,38.3c-41,16.93,34.33-53.9,34.33-53.9l31.8-2.15S419.6,542.25,378.61,559.17Z" transform="translate(-85.48 -287.7)"/><path class="cls-1" d="M768.41,483.39s-29.61,21-8.54,19.17C781.18,500.72,778.78,479.54,768.41,483.39Z" transform="translate(-85.48 -287.7)"/><path class="cls-1" d="M906.67,525.19c-11.8,10.24-29.54,19.53-29.54,19.53s-7,5.26-.78-7,4.4-30.72,4.4-30.72-11.54-5.4-15.75,0c-3.82,4.89-67.21,48.23-67.21,48.23s-35.94,9.82-.68-18.1c26.48-21,79.06-53.46,70.56-70.79-4.24-8.64-27.76,4.71-27.76,4.71s-38.11,19.71-62.86,59.23c-7.6,12.15-47.25,28.28-47.25,28.28s-11.93,4.4,9.49-22.8c0,0,25.8-23.18,9.82-21.29,0,0-10.7-.65-15.33,7.56s-43.5,30-43.5,30-11,7.24,2.74-10,28.57-25.92,12.62-30.62c0,0-1,2.45-2,2s-2.55-7.63-17-3.13-53.31,33.46-53.31,33.46-53.12,35.18-10-7c0,0,11-9.36,15.82-10.86s-1.5-11.15-6.85-12.06c0,0-11,5.08-21.26,1.56s-19.05-12.59-26.09-4.43c0,0-3.59,5.8,4.76,10.69,0,0,4,1.63,1.44,2.55l-22.24,15.84s-1.83,6.13,9.78,2.48c0,0,15.06-14.8,17.15-14.35s7.63,5,12.72,4.44-10.63,9.59-10.63,9.59S566.11,579,609,573.19c6.43-.87,15.16-10.48,22.17-14.73,0,0,2.55-1.49.35,2.33s-.93,31.84,38.13-7.42c0,0,3.2-3.33,1,5s-3.91,32.35,40.3-7.57c0,0,7.57-7.56,1.57,2.35s5,44.25,52.79-1c0,0,5.87-7.24,3.38,2s-.41,51.36,82.94-25.46c0,0,13.66-12.88,11.26-2.32-1.23,5.43-2.78,22.79-17.16,31.16-7.57,4.4-15-6.9-15-6.9s-12.13-.49-3.08,16.09,37.38,4.36,85.77-40.38C913.45,526.37,918.48,515,906.67,525.19Zm-61.24-45.06c16.93-11.84-7.43,17.8-35.61,38C781,538.89,845.43,480.13,845.43,480.13ZM652.91,554c7.57-16.6,40.83-33.26,40.83-33.26C708,516.78,648.54,563.61,652.91,554Z" transform="translate(-85.48 -287.7)"/><path class="cls-1" d="M253,457.45s157.62-64,261.36-169.75c0,0,47.15,61.29,62.65,63.32,0,0,23.57-10.11,33.68-26.28,0,0,82.85,97.68,122.59,116.54,0,0-87.57-39.74-122.59-76.12l-14.82,7.41s71.4,62.65,82.18,64c0,0-99-33.68-159.65-103.06C518.39,333.5,347.29,460.14,253,457.45Z" transform="translate(-85.48 -287.7)"/><path class="cls-1" d="M662.09,465.5A276.88,276.88,0,0,1,623,454c-8.14-3.08-12.68-5.32-12.68-5.32-143.24-61.82-237.47,7.54-237.47,7.54,56.14-21.47,128.92-8.64,173.32,3.1,24.24,6.41,40,12.49,40,12.49q4.85,1.79,9.6,3.39h0l.47.16c.1.59-2.45,2.92-10.64,8.75-10.5,7.48-91.58,75.17-66.52,92.58,9.39,6.52,8.74-3.66,8.74-3.66a927,927,0,0,1,77.61-92.47,5.84,5.84,0,0,1,0-2.22c147.78,45.76,221.21-31.92,221.21-31.92C765.37,478.19,703.78,474.54,662.09,465.5Z" transform="translate(-85.48 -287.7)"/></g><g id="Layer_2" data-name="Layer 2"><path class="cls-1" d="M222.28,458.67s-54-.78-85,34.44,31.3,37.3,58.17,34.95c10.84-.94,11.16,9.53-10.6,18.69-32.16,13.53-91.44,26.31-64.37,12.42,0,0-8.32,1.61-15.26,2.35-13.54,1.44-25.53-1.24-16.63,9a37.14,37.14,0,0,0,22.11,11.74c16,2.2,40-2.9,57.43-8.12,41.37-12.43,74.25-53,31.77-54.85-17.23-.75-50.59-.63-51.14-6.88-.48-5.27,27-20.78,36.65-25.56,29.89-14.82,102.2-12.9,40.69,3.52-46.43,12.39,13.7,15.52,33-.39S246.88,456,222.28,458.67Z" transform="translate(-85.48 -287.7)"/></g></svg>